<svg xmlns="http://www.w3.org/2000/svg" xmlns:xlink="http://www.w3.org/1999/xlink" version="1.1" x="0px" y="0px" viewBox="0 0 1024 1280" style="enable-background:new 0 0 1024 1024;" xml:space="preserve"><g><g><g><path d="M326,140c26.3,0,52.7,0,79,0c-6.7-6.7-13.3-13.3-20-20c0,35.2,0,70.4,0,105.6c0,56.1,0,112.1,0,168.2     c0,12.9,0,25.7,0,38.6c0.9-3.4,1.8-6.7,2.7-10.1c-13.2,19-26.3,38-39.5,57.1c-25.7,37.2-51.5,74.4-77.2,111.6     c-17.7,25.6-35.4,51.1-53.1,76.7c-13.2,19.1-26.4,38.2-39.6,57.2c-21,30.4-42.1,60.8-63.1,91.2c-0.4,0.6-0.8,1.2-1.2,1.8     c5.8-3.3,11.5-6.6,17.3-9.9c-9.3,0.7-14,5.2-19.2,12.1c-1.8,2.3-3.5,4.6-4.9,7.2c-6.9,13.1-9,27.3-6.8,41.9     c3.1,20.7,17.6,39.6,36.7,48c10.7,4.7,21.2,6,32.5,6c24.5,0,49,0,73.4,0c42.8,0,85.6,0,128.4,0c51.1,0,102.2,0,153.4,0     c50.4,0,100.9,0,151.3,0c40.1,0,80.2,0,120.3,0c20.3,0,40.6,0,60.8,0c24.4,0,48.2-11.8,59.8-34.1c10.6-20.3,10.6-45.9-2.1-65.3     c-3.7-5.6-7.7-11.1-11.5-16.6c-47.9-69.3-95.8-138.5-143.8-207.8c-38.7-56-77.4-111.9-116.1-167.9c-2.1-3-4.2-6-6.2-9     c0.9,3.4,1.8,6.7,2.7,10.1c0-35.2,0-70.4,0-105.6c0-56.1,0-112.2,0-168.2c0-12.9,0-25.7,0-38.6c-6.7,6.7-13.3,13.3-20,20     c26.3,0,52.7,0,79,0c10.5,0,20.5-9.2,20-20c-0.5-10.8-8.8-20-20-20c-26.3,0-52.7,0-79,0c-10.8,0-20,9.2-20,20     c0,40.7,0,81.3,0,122c0,57.4,0,114.8,0,172.1c0,5.6-0.1,11.2,0,16.8c0.1,7.1,2.7,11.6,6.4,16.9c19.1,27.6,38.2,55.3,57.4,82.9     c63.4,91.7,126.9,183.4,190.3,275.2c8.1,11.7,16.2,23.4,24.3,35.1c0.6,0.9,1.2,1.7,1.8,2.6c0.1,0.1,0.2,0.2,0.2,0.3     c0.9,1.4,1.6,2.9,2.5,4.3c1,2.1,1,2,0-0.2c0.4,1.1,0.7,2.1,1,3.2c0.5,1.6,0.8,3.3,1.1,5c-0.7-4.8-0.2,0.9-0.2,1.7     c0,0.4,0.1,4.1-0.2,4.2c0.1-0.9,0.3-1.7,0.4-2.6c-0.1,0.9-0.3,1.8-0.5,2.7c-0.3,1.3-0.6,2.6-1,3.9c-0.1,0.4-0.3,0.8-0.4,1.3     c-0.8,2-0.6,1.7,0.6-1.1c0.3,0.5-4.1,8-4.6,7.9c0.5-0.7,1-1.3,1.5-2c-0.5,0.7-1.1,1.3-1.7,2c-0.9,1-1.8,1.9-2.8,2.8     c-0.3,0.3-0.6,0.6-1,0.9c-1.6,1.4-1.3,1.1,1-0.7c0.1,0.3-3,2-3.3,2.2c-1.1,0.7-2.3,1.2-3.5,1.9c-3.9,2.2,4.2-1.2-0.1,0     c-1.3,0.4-2.5,0.8-3.8,1.1c-0.9,0.2-1.8,0.4-2.6,0.6c-2.2,0.4-1.8,0.3,1.3-0.2c-0.2,0.5-3.8,0.2-5.1,0.2c-2.8,0-5.7,0-8.5,0     c-35.5,0-71,0-106.5,0c-60.1,0-120.3,0-180.4,0c-65.3,0-130.6,0-195.9,0c-51,0-102,0-153.1,0c-14.1,0-28.2,0-42.3,0     c-3.1,0-6.3,0-9.4,0c-0.5,0-0.9,0-1.4,0c-0.5,0,3.4-4-1.4-0.1c0.9,0.1,1.7,0.3,2.6,0.4c-0.9-0.1-1.8-0.3-2.7-0.5     c-1.3-0.3-2.6-0.6-3.9-1c-0.4-0.1-0.8-0.3-1.3-0.4c-2-0.8-1.7-0.6,1.1,0.6c-0.9,0.5-6-3.3-6.9-3.8c-3.8-2.3,3.1,3-0.1-0.1     c-1.3-1.2-2.6-2.3-3.7-3.6c-0.3-0.3-0.6-0.6-0.9-1c-1.4-1.6-1.1-1.3,0.7,1c-0.3,0-2-3-2.2-3.3c-0.7-1.1-1.2-2.3-1.9-3.5     c-2.2-3.9,1.2,4.2,0-0.1c-0.3-1.1-2.7-7-1.9-7.8c0.1,0.9,0.3,1.7,0.4,2.6c-0.1-0.9-0.1-1.8-0.2-2.8c0-1.6,0.1-3.2,0.1-4.9     c0.2-5.1-1.3,3.4,0.3-1.4c0.5-1.6,0.9-3.2,1.4-4.8c1.4-4.8-2.1,2.9,0.6-1.2c0.6-1,1.1-2,1.7-2.9c1.5-2.2,3.2-4.3,4.8-6.4     c-5.8,3.3-11.5,6.6-17.3,9.9c8.1-0.6,13.3-4,17.9-10.5c0.7-1,1.3-1.9,2-2.9c2.7-3.9,5.4-7.8,8.1-11.8     c9.3-13.4,18.6-26.9,27.9-40.3c19.1-27.6,38.3-55.3,57.4-82.9c6.4-9.3,12.9-18.6,19.3-27.9c18.2-26.2,36.3-52.5,54.5-78.7     c21.4-30.9,42.8-61.8,64.1-92.7c12.8-18.5,25.6-37,38.4-55.5c3.4-4.9,4.3-10.5,4.3-16.3c0-8.6,0-17.2,0-25.9     c0-32.9,0-65.7,0-98.6c0-37.5,0-75,0-112.5c0-22.7,0-45.5,0-68.2c0-1.1,0-2.2,0-3.3c0-10.8-9.2-20-20-20c-26.3,0-52.7,0-79,0     c-10.5,0-20.5,9.2-20,20C306.5,130.8,314.8,140,326,140L326,140z"/></g></g><g><g><path d="M405,350c31.2,0,62.5,0,93.7,0c4.4,0,8.9,0,13.3,0c10.5,0,20.5-9.2,20-20c-0.5-10.8-8.8-20-20-20     c-31.2,0-62.5,0-93.7,0c-4.4,0-8.9,0-13.3,0c-10.5,0-20.5,9.2-20,20C385.5,340.8,393.8,350,405,350L405,350z"/></g></g><g><g><path d="M405,224c31.2,0,62.5,0,93.7,0c4.4,0,8.9,0,13.3,0c10.5,0,20.5-9.2,20-20c-0.5-10.8-8.8-20-20-20     c-31.2,0-62.5,0-93.7,0c-4.4,0-8.9,0-13.3,0c-10.5,0-20.5,9.2-20,20C385.5,214.8,393.8,224,405,224L405,224z"/></g></g><g><g><path d="M233,701c18.6,0,37.2,0,55.7,0c44.6,0,89.2,0,133.8,0c53.7,0,107.5,0,161.2,0c46.5,0,92.9,0,139.4,0     c22.6,0,45.3,0.5,67.9,0c0.3,0,0.6,0,0.9,0c10.5,0,20.5-9.2,20-20c-0.5-10.8-8.8-20-20-20c-18.6,0-37.2,0-55.7,0     c-44.6,0-89.2,0-133.8,0c-53.7,0-107.5,0-161.2,0c-46.5,0-92.9,0-139.4,0c-22.6,0-45.3-0.5-67.9,0c-0.3,0-0.6,0-0.9,0     c-10.5,0-20.5,9.2-20,20C213.5,691.8,221.8,701,233,701L233,701z"/></g></g></g><text x="0" y="1039" fill="#000000" font-size="5px" font-weight="bold" font-family="'Helvetica Neue', Helvetica, Arial-Unicode, Arial, Sans-serif">Created by shashank singh</text><text x="0" y="1044" fill="#000000" font-size="5px" font-weight="bold" font-family="'Helvetica Neue', Helvetica, Arial-Unicode, Arial, Sans-serif">from the Noun Project</text></svg>