<?xml version="1.0" encoding="utf-8"?>
<!-- Generator: Adobe Illustrator 26.5.3, SVG Export Plug-In . SVG Version: 6.00 Build 0)  -->
<svg version="1.1" id="Layer_1" xmlns="http://www.w3.org/2000/svg" xmlns:xlink="http://www.w3.org/1999/xlink" x="0px" y="0px"
	 viewBox="0 0 64 80" style="enable-background:new 0 0 64 80;" xml:space="preserve">
<circle cx="29" cy="34" r="8"/>
<path d="M18,50v9c0,0.6,0.4,1,1,1h20c0.6,0,1-0.4,1-1v-9c0-2.8-2.2-5-5-5H23C20.2,45,18,47.2,18,50z"/>
<path d="M10.1,23.5c0.2,0.3,0.5,0.5,0.9,0.5h23.3c0.3,0,0.7-0.2,0.8-0.5c0.2-0.3,0.2-0.7,0.1-1L34.5,21H32c-1.2,0-2.2-0.7-2.7-1.7
	L24.5,9H11c-0.6,0-1,0.4-1,1c0,0.2,0.1,0.4,0.2,0.5l3.7,5.8l-3.7,6.1C10,22.8,10,23.2,10.1,23.5z"/>
<path d="M48,4H26c-0.6,0-1,0.4-1,1c0,0.1,0,0.3,0.1,0.4l6,13c0.2,0.4,0.5,0.6,0.9,0.6h15v40c0,0.6,0.4,1,1,1s1-0.4,1-1V5
	C49,4.4,48.6,4,48,4z"/>
</svg>
