<?xml version="1.0" encoding="utf-8"?>
<!-- Generator: Adobe Illustrator 26.5.3, SVG Export Plug-In . SVG Version: 6.00 Build 0)  -->
<svg version="1.1" id="Layer_1" xmlns="http://www.w3.org/2000/svg" xmlns:xlink="http://www.w3.org/1999/xlink" x="0px" y="0px"
	 viewBox="0 0 100 125" style="enable-background:new 0 0 100 125;" xml:space="preserve">
<style type="text/css">
	.st0{fill-rule:evenodd;clip-rule:evenodd;}
</style>
<path class="st0" d="M73.1,24.1c-1.3,2.3-3.2,3.6-5.6,4.1c-0.6,0.1-1.2,0.2-1.9,0.2c-1.5,0-2.8-0.5-3.7-1.4
	c-1.2-1.4-1.5-3.3-0.8-5.7c0.6-2.3,1.8-4,3.7-5.1c1.9-1.1,3.9-2,6.2-2.8c2.5-0.8,4.3-0.9,5.4-0.1c1.2,0.8,1.3,2.4,0.1,4.8
	C75.5,20,74.4,22,73.1,24.1z M57.4,21.6c0.9,3.4,0.6,6.5-1.1,9.4c-1.8,2.9-3.9,4.4-6.4,4.4c-2.5,0-4.7-1.5-6.3-4.4
	c-1.7-2.7-2.2-5.5-1.7-8.5c0.5-2.9,1.5-5.9,2.8-8.9c1.5-3.3,3.2-5.1,4.9-5.4c1.9-0.4,3.5,1,4.8,4.3C55.4,15,56.4,18.1,57.4,21.6z
	 M53.9,49.5c1.6,6.8,3.1,20.3,4.5,40.5h6.7c0.7,0,1,0.3,1,1c0,0.3-0.1,0.5-0.3,0.8c-0.2,0.2-0.4,0.3-0.7,0.3H34.7c-0.7,0-1-0.3-1-1
	c0-0.7,0.3-1,1-1h6.7c1.9-20.2,3.8-33.8,5.5-40.6c1-3.8,2.2-5.7,3.6-5.7C51.8,43.7,53,45.6,53.9,49.5z M63.5,47.7
	c-3.3-0.6-5.5-2-6.4-4.3c-1-2.4-0.4-4.9,1.8-7.5c1.9-2.6,4.4-4.2,7.3-4.7c3-0.5,6.1-0.7,9.3-0.4c3.6,0.1,5.9,0.9,6.9,2.4
	c1.1,1.7,0.3,3.7-2.4,6.1c-2.2,2-4.7,4-7.4,6c-2.3,1.7-4.7,2.6-7.3,2.6L63.5,47.7z M78,43.3c1.8-1.4,3.8-2,6-1.8
	c2,0.2,4.2,0.7,6.6,1.6c2.4,0.8,3.9,1.8,4.3,3.1c0.5,1.5-0.5,2.9-2.9,4.1c-2,1-4.1,1.9-6.2,2.7c-1.2,0.4-2.3,0.7-3.4,0.7
	c-1.2,0-2.3-0.2-3.4-0.8c-2.3-1.2-3.6-2.7-3.8-4.5C75,46.4,76,44.7,78,43.3z M79.8,54.7c3.3,1.5,5.1,3.2,5.4,4.9
	c0.4,1.9-1,3.5-4.3,4.8c-2.5,1-5.6,1.9-9.2,2.9c-1.2,0.3-2.4,0.5-3.7,0.5c-2.1,0-4-0.5-5.8-1.6c-2.9-1.8-4.3-3.9-4.3-6.5
	c0-2.5,1.4-4.6,4.3-6.3c2.7-1.7,5.6-2.2,8.6-1.7C73.7,52.4,76.7,53.3,79.8,54.7z M39,21.3c0.7,2.3,0.4,4.2-0.8,5.6
	c-1,1-2.2,1.4-3.8,1.4c-0.6,0-1.3-0.1-1.9-0.2c-2.3-0.5-4.1-1.8-5.5-4.1h-0.1c-1.4-2.3-2.5-4.3-3.3-5.9c-1.2-2.4-1.1-4,0.1-4.9
	c1.1-0.8,2.9-0.8,5.4,0c2.2,0.8,4.2,1.7,6.1,2.8C37.2,17.2,38.4,19,39,21.3z M24.6,30.7c3.3-0.2,6.4-0.1,9.4,0.4s5.4,2.1,7.4,4.8
	c2,2.7,2.6,5.2,1.7,7.5c-1,2.3-3.1,3.8-6.4,4.3l-1.8,0.1c-2.6,0-5-0.9-7.3-2.5c-3-2.3-5.5-4.3-7.4-6.1c-2.7-2.5-3.4-4.5-2.3-6.1
	C18.7,31.6,21,30.8,24.6,30.7z M16.1,41.5c2.2-0.2,4.2,0.4,6.1,1.8c2,1.5,2.9,3.1,2.8,5c-0.2,1.9-1.4,3.4-3.6,4.5
	c-1.1,0.5-2.3,0.8-3.5,0.8c-1.2,0-2.3-0.2-3.4-0.7c-2.1-0.8-4.2-1.7-6.3-2.6c-2.4-1.2-3.4-2.6-3-4c0.5-1.3,1.9-2.3,4.4-3.2
	C12,42.2,14.2,41.7,16.1,41.5z M42.1,59.8c0,2.5-1.4,4.7-4.3,6.5c-1.8,1-3.7,1.6-5.8,1.6c-1.2,0-2.4-0.2-3.6-0.5
	c-3.7-1-6.7-2-9.1-2.9c-3.3-1.3-4.8-2.9-4.4-4.8c0.3-1.7,2.2-3.3,5.5-4.9c3-1.4,5.9-2.3,8.9-2.8c3-0.5,5.8,0,8.6,1.7
	C40.7,55.2,42.1,57.3,42.1,59.8z"/>
</svg>
