<?xml version="1.0" encoding="utf-8"?>
<!-- Generator: Adobe Illustrator 26.5.3, SVG Export Plug-In . SVG Version: 6.00 Build 0)  -->
<svg version="1.1" id="Layer_1" xmlns="http://www.w3.org/2000/svg" xmlns:xlink="http://www.w3.org/1999/xlink" x="0px" y="0px"
	 viewBox="0 0 66 82.5" style="enable-background:new 0 0 66 82.5;" xml:space="preserve">
<g>
	<path d="M32.6,13.4c3.9-1.9,8.4-2,12.3-0.3l-6,7.9c-1.3,1.7-1.1,4.1,0.4,5.6s3.9,1.7,5.6,0.4l7.9-6c1.7,3.9,1.6,8.5-0.3,12.3
		c7.2-3.5,10.4-12.2,7.1-19.6c-1.9,0-3.8-0.7-5.2-2.2c-1.4-1.4-2.2-3.3-2.2-5.2C44.8,2.9,36.1,6.2,32.6,13.4z"/>
	<circle cx="59.6" cy="6.3" r="5.3"/>
	<circle cx="6.4" cy="20.5" r="5.3"/>
	<path d="M9.5,27.2c0.8,8.1,7.9,14,15.9,13.4c-0.6,7.8,5.1,15,13.3,15.9c0.9-1.9,2.6-3.4,4.8-4c2-0.5,4.1-0.2,5.9,0.9
		c6.2-4.8,7.6-13.6,3.2-20.1c-0.3,4.3-2.5,8.3-5.9,10.8L42.9,35c-0.8-2-3-3.1-5.1-2.5l0,0c-2.1,0.5-3.4,2.5-3.2,4.7l1.2,9.9
		c-4.2-0.5-8.1-2.9-10.5-6.4l0,0c-0.6-0.6-5.6-3.6-6.5-10.5l9.9,1.2c2.1,0.3,4.1-1.1,4.7-3.2c0.5-2.1-0.5-4.2-2.5-5.1l-9.2-3.8
		c2.5-3.4,6.5-5.6,10.8-6c-6.3-4.2-15.1-3.1-20,3.2c1.1,1.7,1.5,3.9,0.9,5.9C12.9,24.6,11.4,26.3,9.5,27.2z"/>
	<circle cx="45.4" cy="59.7" r="5.3"/>
</g>
</svg>
