<?xml version="1.0" encoding="utf-8"?>
<!-- Generator: Adobe Illustrator 26.5.3, SVG Export Plug-In . SVG Version: 6.00 Build 0)  -->
<svg version="1.1" id="Layer_1" xmlns="http://www.w3.org/2000/svg" xmlns:xlink="http://www.w3.org/1999/xlink" x="0px" y="0px"
	 viewBox="0 0 1024 1280" style="enable-background:new 0 0 1024 1280;" xml:space="preserve">
<g>
	<path d="M656.3,390.3c31.3-42.9,40.3-97,26.2-148.1C666.2,182.6,626,130.8,572.9,99.4C531.4,74.9,483.7,62.8,436,58.6
		c-24.6-2.2-49.8-2.4-74.3,0.6c-1.7,0.2-3.3,0.4-5,0.7c-9.2,1.3-14.1,14.8-9,22c2.8,4,5.1,8.4,7.3,12.8c1,2.1,2,4.2,3,6.3
		c0.7,1.5,1.3,2.9,2,4.4c0,0.1,0.1,0.3,0.2,0.4l0,0c0.2,0.5,0.4,1.1,0.6,1.6c2.8,7.1,5.3,14.3,7.5,21.6c2.7,9,5,18.2,6.8,27.5
		c2.4,12.1,3.4,19.6,4.5,30.9c2,22.1,1,44.3,2.6,66.4c4.8,66.8,25.5,143.3,88.7,177.9C507.8,451.8,550.5,453,591,446
		c8.5,34.1,14.9,68.8,19.6,103.7c1.1,8,11.4,12.4,18.5,10.5c8.7-2.4,11.6-10.4,10.5-18.5c-5-37.2-12-74.2-21.4-110.5
		C632.7,419.4,645.6,405.1,656.3,390.3z M598.8,408c-1,0.8-2,1.6-3,2.4l-0.1,0.1c-0.2,0.2-0.5,0.3-0.7,0.5c-2.3,1.7-4.6,3.3-6.9,4.8
		c-1-3.5-2-6.9-3-10.3c-16.6-54.8-38.5-107.3-69.5-155.6c-4.8-7.5-9.8-14.8-15-21.9c-1.1-1.6-2.3-3.1-3.5-4.7
		c-0.3-0.4-0.6-0.8-0.9-1.2c0,0,0,0-0.1-0.1c0-0.1-0.1-0.1-0.2-0.2c0,0,0,0,0-0.1c0,0,0,0-0.1-0.1s-0.1-0.2-0.2-0.3
		c0,0-0.1-0.1-0.1-0.2c-1.8-2.3-3.7-4.6-5.6-6.9c-3.4-4.1-6.9-8.2-10.7-11.9c-9.3-8.9,4.9-23.1,14.1-14.1c4.9,4.7,9.2,10,13.5,15.3
		c27,33.5,48.3,71.6,65.7,110.9c12.7,28.7,23.5,58.2,32.4,88.2C603,404.5,600.9,406.3,598.8,408z"/>
	<path d="M859.7,609.6c-14,16.7-28.2,33.3-42.3,49.9c-8.9,10.5-17.8,21-26.6,31.5c-3.7,4.3-7.2,9-11.2,12.9
		c-17.8,17.3-36,34-54,51.1c-9,8.5-18,17-28.3,24c-20.9,14.1-45.6,22.3-70.7,23.9c-9.5,0.6-19,0-28.4-0.3
		c-14.2-0.4-28.4-0.9-42.6-1.3c-13.7-0.4-27.4-0.9-41-1.3c-11.2-0.4-21.9-1-32.6,3.2c-11.8,4.7-21.7,14.7-31.5,22.7
		c-7.2,5.9-14.4,11.8-21.6,17.7c0.8,0.9,1.6,1.7,2.4,2.6c5.5,5.9,11.1,11.8,16.6,17.8c8.1,8.9,8.6,21.6,0.3,30.5
		c-0.1,0.2-0.3,0.3-0.5,0.5c-0.1,0.1-0.3,0.3-0.4,0.4c-2.4,2.2-4.7,4.4-7.1,6.6c-13.2,12.3-26.4,24.6-39.5,36.9
		c-5.7,5.3-11.3,10.5-17,15.8c-3.7,3.4-7.1,7.2-11.9,9c-8.5,3.4-17.6,0.8-23.9-5.6c-1.6-1.7-3.2-3.4-4.7-5.1
		c-7.4-8-14.9-16-22.3-23.9c-24.9-26.7-49.8-53.4-74.7-80.1c-23.2-24.9-46.4-49.8-69.6-74.6c-5.5-5.9-11-11.7-16.5-17.7
		c-3.8-4.1-6.5-8.8-7-14.6c-0.6-7.9,3.5-14,8.9-19.1c22-20.6,43.8-41.4,66.1-61.7c7.9-7.2,19.5-8.7,28.3-2
		c5.8,4.5,10.6,10.9,15.6,16.2c1.2,1.3,2.4,2.6,3.6,3.9c16.5-16.6,32.9-33.4,49.6-49.9c14.5-14.4,35.1-23.6,54.9-27.9
		c24.8-5.4,50.8-3.3,74.5,5.7c21.3,8.1,42.6,16.3,63.8,24.5c23.8,9.1,50.8,6.6,75.9,6.6h39.2c4.5,0,8.9,0,13.3,0.9
		c10,2,18.7,7.6,25.1,15.4c3.8-1.6,7.6-3.3,11.4-4.9c8.4-3.6,14.6-10.3,22.4-15c8.9-5.4,19.6-9.4,26.8-17.1
		c9-9.6,18.1-19.3,27.1-28.9c8.8-9.4,17.4-19.1,27.1-27.6c16.6-14.4,42.8-22.7,62.4-8.9c9.3,6.6,17.5,15.8,19.5,27.4
		C870.5,590.8,866.9,601.1,859.7,609.6z"/>
</g>
</svg>
